<svg id="Layer_1" data-name="Layer 1" xmlns="http://www.w3.org/2000/svg" viewBox="0 0 1205.56 428.42"><defs><style>.cls-1{fill:#fd0c15;}.cls-1,.cls-2{fill-rule:evenodd;}.cls-2{fill:#f3ae12;}</style></defs><title>mastercard</title><path class="cls-1" d="M1738,539.68c0-13.06,10.3-23.71,22.67-23.71,12.71,0,22.68,10.65,22.68,23.71s-10,23.71-22.68,23.71c-12.37.34-22.67-10.31-22.67-23.71Zm22.67,18.55c9.62,0,17.18-8.24,17.18-18.21s-7.9-18.21-17.18-18.21c-9.62,0-17.18,8.25-17.18,18.21s7.56,18.21,17.18,18.21Zm-3.09-7.9h-4.81v-21h8.59c1.72,0,3.78,0,5.15,1a5.79,5.79,0,0,1,2.41,5.16,5.3,5.3,0,0,1-3.44,5.15l3.78,9.28h-5.15l-3.1-8.25h-3.43v8.59Zm0-11.68h2.75a6.78,6.78,0,0,0,2.75-.34,2.71,2.71,0,0,0,1-2.41,2.46,2.46,0,0,0-1-2.06,7.67,7.67,0,0,0-2.75-.34H1758l-.34,5.15Z" transform="translate(-598.44 -371.68)"/><path class="cls-1" d="M1413.37,381.3l-6.18,40.54c-13.4-7.22-23.37-10-34-10-28.17,0-48.09,28.86-48.09,69.75,0,28.17,13.4,45.35,35.38,45.35,9.28,0,19.59-3.09,32.3-9.62l-6.53,42.6c-14.09,4.12-23,5.5-33.67,5.5-40.88,0-66.31-30.92-66.31-80.4,0-66.65,35-113.37,85.55-113.37a63.38,63.38,0,0,1,17.18,2.06l15.8,4.12c4.12,1.72,5.16,2.06,8.59,3.44Z" transform="translate(-598.44 -371.68)"/><path class="cls-1" d="M1287.29,409.13a12.7,12.7,0,0,0-3.78-.35c-12.37,0-19.59,6.53-31.27,24.74l3.44-23h-34.36L1198,562h38.13c13.75-92.76,17.18-108.56,35.39-108.56h2.75c3.43-18.21,7.9-31.61,14.43-44l-1.37-.34Z" transform="translate(-598.44 -371.68)"/><path class="cls-1" d="M1060.19,560c-10.31,3.44-18.55,5.15-27.14,5.15-19.24,0-29.89-11.68-29.89-33.32a99.27,99.27,0,0,1,1-13.74l2.4-14.78,1.72-12,16.49-103.41h37.8l-4.47,22.33h19.58l-5.5,36.76H1053l-10,63.21c-.34,2.75-.68,4.81-.68,6.19,0,7.9,4.12,11.34,13.05,11.34,4.47,0,7.56-.35,10.31-1.38l-5.5,33.67Z" transform="translate(-598.44 -371.68)"/><path class="cls-1" d="M910.4,458.26c0,19.24,8.93,32.29,28.86,42.25,15.11,7.56,17.86,10,17.86,16.84,0,9.27-6.87,13.74-21.64,13.74a95.35,95.35,0,0,1-34-6.18l-5.16,35,1.72.34,6.87,1.38c2.41.34,5.5,1,10,1.37,8.94.69,16.15,1.37,21,1.37,39.86,0,58.41-16.14,58.41-50.5,0-20.61-7.56-33-26.8-42.26-15.81-7.55-17.52-9.27-17.52-16.49q0-12.36,18.55-12.37a208.76,208.76,0,0,1,27.14,2.41l5.5-35a235.69,235.69,0,0,0-33.33-3.1c-42.94,0-57.72,23-57.37,51.2Z" transform="translate(-598.44 -371.68)"/><path class="cls-1" d="M1716.05,561.67H1680l1.72-14.77c-10.3,11.68-21.3,16.83-35,16.83-27.83,0-46-25.08-46-62.87,0-50.51,28.17-93.11,61.84-93.11,14.78,0,25.77,6.53,36.42,20.62l8.25-53.26h37.45l-28.52,186.56Zm-56-35.39c17.86,0,30.23-21,30.23-51.19,0-19.24-7.21-29.89-20.27-29.89-17.18,0-29.54,21.3-29.54,50.85,0,19.92,6.52,30.23,19.58,30.23Z" transform="translate(-598.44 -371.68)"/><path class="cls-1" d="M1180.44,558.58a126.31,126.31,0,0,1-39.17,6.18c-42.26,0-64.59-23.36-64.59-68,0-52.22,28.17-90.35,66.31-90.35,31.26,0,51.19,21.64,51.19,55.31,0,11-1.37,22-4.81,37.45h-75.58a27.62,27.62,0,0,0-.35,4.81c0,17.86,11.34,26.8,33.33,26.8,13.4,0,25.77-3.09,39.51-9.62l-5.84,37.45Zm-21.3-90.36a67.41,67.41,0,0,0,.34-7.56c0-12.37-6.53-19.58-17.87-19.58-12,0-20.61,9.62-24,27.14Z" transform="translate(-598.44 -371.68)"/><polygon class="cls-1" points="159.41 189.99 121.62 189.99 143.27 46.72 94.48 189.99 68.71 189.99 65.62 47.76 42.6 189.99 7.21 189.99 36.76 3.78 91.39 3.78 92.76 119.22 129.87 3.78 188.96 3.78 159.41 189.99 159.41 189.99"/><path class="cls-1" d="M855.77,494.33c-4.12-.34-5.84-.69-8.59-.69-21.64,0-32.29,7.91-32.29,23,0,9.28,5.49,15.46,13.74,15.46,15.12,0,26.46-15.46,27.14-37.79Zm27.49,67.34H851.65l.69-15.81c-9.62,12.72-22.34,18.21-39.86,18.21-20.61,0-34.7-16.83-34.7-41.23,0-37.1,24.74-58.4,66.65-58.4a128.71,128.71,0,0,1,15.46,1c1-5.15,1.38-7.21,1.38-10,0-10-6.53-13.74-24.39-13.74-10.65,0-23,1.71-31.61,4.46L800.46,448,797,449l5.16-34c18.89-5.84,31.6-8.25,45.35-8.25,32.63,0,49.81,15.46,49.81,44.32,0,7.56-.68,13.06-3.09,30.24l-7.56,53.93-1.37,9.62-1,7.56-.69,5.5-.34,3.78Z" transform="translate(-598.44 -371.68)"/><path class="cls-1" d="M1479,494.33c-3.78-.34-5.84-.69-8.59-.69-21.64,0-32.64,7.91-32.64,23,0,9.28,5.5,15.46,13.75,15.46,15.46,0,26.79-15.46,27.48-37.79Zm27.49,67.34h-31.61l.69-15.81c-9.62,12.72-22.33,18.21-39.86,18.21-20.61,0-34.7-16.83-34.7-41.23,0-37.1,24.74-58.4,66.65-58.4a133.6,133.6,0,0,1,15.47,1c1-5.15,1.37-7.21,1.37-10,0-10-6.53-13.74-24.39-13.74-10.65,0-23,1.71-31.61,4.46l-5.5,1.38-3.43,1,5.15-34c18.9-5.84,31.61-8.24,45.35-8.24,32.64,0,49.82,15.46,49.82,44.32,0,7.56-.69,13.05-3.1,30.23l-7.9,53.6-1,9.62-1,7.55-.69,5.16.35,4.81Z" transform="translate(-598.44 -371.68)"/><path class="cls-1" d="M1612.64,409.13a12.67,12.67,0,0,0-3.78-.35c-12.37,0-19.59,6.53-31.27,24.74l3.44-23h-34.36L1523.31,562h38.14c13.74-92.76,17.17-108.56,35.38-108.56h2.75c3.44-18.21,8.25-31.61,14.43-44l-1.37-.34Z" transform="translate(-598.44 -371.68)"/><path class="cls-2" d="M1453.23,709.06c0,34.35-10.66,54.62-27.49,54.62-12.37.34-19.58-13.4-19.58-33.67,0-24,11-51.53,28.17-51.53,14.08,0,18.9,14.77,18.9,30.58Zm37.44.34c0-38.14-18.89-68-54.28-68-40.88,0-67.34,36.08-67.34,89.33,0,38.14,15.81,69.4,54.29,69.4,38.82,0,67.33-27.49,67.33-90.7Z" transform="translate(-598.44 -371.68)"/><path class="cls-2" d="M1381.08,614.92l-5.84,40.54c-12.72-7.21-21.65-10-31.61-10-26.46,0-45,28.86-45,69.74,0,28.17,12.37,45.35,33,45.35,8.94,0,18.55-3.09,30.24-9.62l-6.19,42.6c-13.05,4.12-21.64,5.5-31.61,5.5-38.13,0-62.18-30.92-62.18-80.4,0-66.65,33-113.37,80.05-113.37a53.55,53.55,0,0,1,15.8,2.06l14.43,4.12c4.81,1.38,5.85,1.72,8.94,3.44Z" transform="translate(-598.44 -371.68)"/><path class="cls-2" d="M1146.43,642.4a13.06,13.06,0,0,0-3.78-.34c-11.69,0-18.21,6.53-29.21,24.74l3.44-23h-32l-21.65,151.51h35.39c12.71-92.76,16.15-108.57,33-108.57a9.52,9.52,0,0,1,2.75.35c3.09-18.21,7.56-31.61,13.4-44l-1.37-.69Z" transform="translate(-598.44 -371.68)"/><path class="cls-2" d="M1609.54,793.91h-33.66l1.71-14.77c-9.62,11.68-19.92,16.84-33,16.84-25.77,0-42.94-25.08-42.94-62.87,0-50.51,26.45-93.11,57.71-93.11,13.75,0,24.4,6.53,34,21l7.9-53.26h35l-26.8,186.21ZM1557,758.18c16.84,0,28.17-20.95,28.17-51.18,0-19.24-6.53-29.55-18.89-29.55-16.15,0-27.49,21-27.49,50.84,0,19.93,6.19,29.89,18.21,29.89Z" transform="translate(-598.44 -371.68)"/><path class="cls-2" d="M813.86,793.23a109.72,109.72,0,0,1-36.42,6.18c-39.51,0-60.12-23.36-60.12-68,0-51.88,26.45-90.36,61.84-90.36,29.2,0,47.75,21.3,47.75,55.31,0,11-1.37,22-4.46,37.45H752a27.62,27.62,0,0,0-.35,4.81c0,17.52,10.65,26.46,31.27,26.46,12.71,0,24-3.1,36.76-9.62l-5.84,37.79Zm-19.93-90.36c0-3.09.34-5.84.34-7.56,0-12.37-6.18-19.58-16.83-19.58-11.34,0-19.24,9.62-22.68,27.14Z" transform="translate(-598.44 -371.68)"/><path class="cls-2" d="M1235.75,793.23a109.67,109.67,0,0,1-36.42,6.18c-39.85,0-60.46-23.36-60.46-68,0-51.88,26.45-90.36,61.84-90.36,29.2,0,48.1,21.3,48.1,55.31,0,11-1.38,22-4.47,37.45h-70.43a27.62,27.62,0,0,0-.35,4.81c0,17.52,10.66,26.46,31.27,26.46,12.71,0,24.05-3.1,36.76-9.62l-5.84,37.79Zm-19.93-90.36a65.49,65.49,0,0,0,.35-7.56c0-12.37-6.19-19.58-16.84-19.58-11.33,0-19.24,9.62-22.67,27.14Z" transform="translate(-598.44 -371.68)"/><path class="cls-2" d="M1730.48,793.23a112.72,112.72,0,0,1-36.42,6.18c-39.51,0-60.47-23.36-60.47-68,0-51.88,26.46-90.36,62.19-90.36,29.2,0,47.75,21.3,47.75,55.31,0,11-1.37,22-4.46,37.45h-70.43a27.62,27.62,0,0,0-.35,4.81c0,17.52,10.65,26.46,31.27,26.46,12.71,0,24-3.1,36.76-9.62l-5.84,37.79Zm-19.93-90.36c0-3.09.34-5.84.34-7.56,0-12.37-6.18-19.58-16.83-19.58-11.34,0-19.24,9.62-22.67,27.14Z" transform="translate(-598.44 -371.68)"/><path class="cls-2" d="M708.73,649.28c-6.87-4.81-16.49-8.59-29.55-8.59-14.43,0-25.77,3.09-25.77,18.2,0,26.8,52.23,16.84,52.23,74.56,0,52.56-34.36,66.3-65.63,66.3-13.74,0-29.88-4.46-41.57-10L607,751.31c7.22,6.53,21.3,11,33.33,11,11.34,0,28.52-3.1,28.52-22.68,0-30.57-52.23-19.24-52.23-72.83,0-49.13,30.58-63.56,60.13-63.56,16.49,0,32.29,2.4,41.22,8.59l-9.27,37.45Z" transform="translate(-598.44 -371.68)"/><path class="cls-2" d="M917.61,793.23c-7.21,3.43-17.17,5.84-31.61,5.84-30.91,0-50.15-30.92-50.15-68.71,0-49.48,27.82-88.64,68.71-88.64,8.93,0,22.67,3.78,33.32,10L930,687.76c-7.56-5.16-15.46-8.25-23.7-8.25-18.9,0-32.64,17.52-32.64,48.44,0,17.87,10,32.64,25.42,32.64,9.28,0,15.8-2.06,23.71-6.53l-5.16,39.17Z" transform="translate(-598.44 -371.68)"/><path class="cls-2" d="M1050.23,755.09c-1.72,13.06-3.44,25.77-4.47,39.17h-34l2.75-24.39h-.35c-10.65,16.49-21.64,27.82-41.22,27.82-21.31,0-33-22.67-33-51.87,0-10.31.68-15.81,2.74-31.61l9.62-70.09h38.14l-10.31,70.43c-1,7.56-2.4,15.12-2.4,23,0,8.93,4.12,17.87,14.43,17.18,15.46,0,24.73-18.9,27.48-41.23l10.65-69.4h36.76l-16.83,111Z" transform="translate(-598.44 -371.68)"/><polygon class="cls-2" points="1167.42 420.86 1161.58 420.86 1161.58 395.78 1153.34 395.78 1153.34 390.29 1175.66 390.29 1175.66 395.78 1167.42 395.78 1167.42 420.86 1167.42 420.86"/><polygon class="cls-2" points="1205.56 420.86 1200.06 420.86 1200.06 395.44 1200.06 395.44 1194.9 420.86 1189.41 420.86 1184.25 395.44 1184.25 395.44 1184.25 420.86 1178.76 420.86 1178.76 390.29 1187.35 390.29 1192.16 414.33 1192.5 414.33 1197.31 390.29 1205.56 390.29 1205.56 420.86 1205.56 420.86"/></svg>