<svg id="Layer_1" data-name="Layer 1" xmlns="http://www.w3.org/2000/svg" viewBox="0 0 1329.11 752.73"><defs><style>.cls-1{fill:#3a57a6;}.cls-1,.cls-2{fill-rule:evenodd;}.cls-2{fill:#f7971d;}</style></defs><title>visa</title><path class="cls-1" d="M1690.83,686.64q-2.76,22.2-7.28,42.66c-12.65-4.13-27.26-10.74-47.87-9.36-12.31.82-26.86,5.55-27.06,16.64-.22,12.29,20,19.6,31.22,25,20.26,9.7,42,22.62,43.71,48.91a61.94,61.94,0,0,1-18.73,47.87c-28.37,26.81-91.3,29.64-134.25,12.49q4-21.48,7.29-43.71c16.62,7.07,39.46,16.63,64.52,13.53,11.41-1.41,25.38-8.06,25-19.77-.5-14.28-27.15-22.78-40.59-30.18-15.6-8.6-33.37-22.91-34.34-44.75a57.12,57.12,0,0,1,12.49-37.46C1587.08,680.93,1644.08,671.13,1690.83,686.64Z" transform="translate(-552.89 -185.91)"/><polygon class="cls-1" points="627.91 222.02 685.28 222.02 649.96 444.67 592.57 444.67 627.91 222.02 627.91 222.02"/><path class="cls-1" d="M982,407.92h87.85c55.9,0,70.41,32.19,64.31,70.63-5.09,32.11-28.16,53.54-58.12,61.16l55.64,90.87h-72l-41.73-87.44L1004,630.58H946.66L982,407.92Zm50.35,44.28-8.87,55.86h16.6c16.12,0,31.38-12.56,33.92-27.94h0c2.53-15.35-8.6-27.92-24.72-27.92Z" transform="translate(-552.89 -185.91)"/><polygon class="cls-1" points="889.94 222.02 947.32 222.02 912 444.67 854.61 444.67 889.94 222.02 889.94 222.02"/><polygon class="cls-1" points="990.91 222.01 1116.89 222.01 1109.21 270.42 1040.61 270.42 1034.58 308.47 1099.78 308.47 1092.11 356.88 1026.89 356.88 1020.65 396.26 1089.24 396.26 1081.56 444.67 955.59 444.67 990.91 222.01 990.91 222.01"/><polygon class="cls-1" points="269 222.01 394.98 222.01 387.29 270.42 318.7 270.42 312.66 308.47 377.87 308.47 370.19 356.88 304.98 356.88 298.73 396.26 367.33 396.26 359.65 444.67 233.67 444.67 269 222.01 269 222.01"/><polygon class="cls-1" points="728.73 222.01 856.12 222.01 848.45 270.42 778.43 270.42 772.3 308.47 836 308.47 828.3 356.88 764.62 356.88 750.68 444.67 693.4 444.67 728.73 222.01 728.73 222.01"/><path class="cls-1" d="M1703.55,407.92h74.77c89.09,0,109.4,67.38,102.42,111.39-10,62.86-66,111.27-137.74,111.27h-74.78l35.33-222.66Zm49.7,48.42h11.85c43.86,0,61,30.93,56.28,60.78-6.37,40-35.15,65-72.76,65h-15.35l20-125.83Z" transform="translate(-552.89 -185.91)"/><path class="cls-1" d="M552.89,377.59H659l12.61,161.76c70.23-121.57,141.61-238.54,213.51-353.44h34.61C843.65,332.71,768.5,480.45,695.71,630.58H617.79l-19-178.38c-4.71-44.28-13.66-63.08-45.9-67.83v-6.78Z" transform="translate(-552.89 -185.91)"/><polygon class="cls-2" points="40.19 99.69 130.69 138.05 138.56 238.84 145.24 238.84 227.4 99.76 227.4 92.78 40.18 92.78 40.19 99.69 40.19 99.69"/><path class="cls-1" d="M1011.49,790.06c13.72,0,23,12.57,20.82,28.07s-15.14,28.07-28.86,28.07-23.05-12.57-20.83-28.07,15.15-28.07,28.87-28.07ZM965.14,682.93h37.14l-12.52,87.76c10.61-10.24,23.58-16.57,38.08-16.57,29.8,0,49.33,28.71,44.07,64.15s-33.36,64.17-63.15,64.17c-14.69,0-25.23-6.62-32.4-17.75l-2,13.92H937.24l27.9-195.68Z" transform="translate(-552.89 -185.91)"/><polygon class="cls-1" points="522.2 571.19 566.77 571.19 586.7 633.39 625.41 571.19 668.48 571.19 555.46 752.73 512.39 752.73 560.05 676.18 522.2 571.19 522.2 571.19"/><polygon class="cls-1" points="889.92 692.63 922.56 496.96 975.97 496.96 943.33 692.63 889.92 692.63 889.92 692.63"/><path class="cls-1" d="M1398.18,682.47c-18.41,43.34-34.12,89.38-53.08,132.17L1339.54,789c0-.1-.07-.22-.09-.31l.94,4.57c-4.11-13.51-11.12-26.25-20.07-37.93l-.71-.91c-1.57-2-3.24-4-4.92-5.91q-1.53-1.79-3.12-3.56a195,195,0,0,0-45.16-36l47.47,169.22h57.24c26.94-66,56-129.91,83.25-195.65Z" transform="translate(-552.89 -185.91)"/><path class="cls-2" d="M1297.38,682.5h-87.3v4.26c50.25,9.8,113.7,52,130.31,106.47l-18.74-91.14C1319.1,688,1309.31,682.5,1297.38,682.5Z" transform="translate(-552.89 -185.91)"/><path class="cls-1" d="M1870.86,879.16H1822c-3.16-9.33-4-20.94-7.28-30.18h-66.6l-12.49,30.18h-56.2l72.85-167.55c3.22-7.35,9-17.39,11.45-21.85,3.7-6.78,18-7.29,24.1-7.29h40.41Zm-81-142.48-27.19,72.75h44Z" transform="translate(-552.89 -185.91)"/></svg>